<?xml version="1.0" standalone="no"?>
<svg id="soursync-logo" viewBox="0 0 320 100" fill="none" xmlns="http://www.w3.org/2000/svg" class="w-full h-full overflow-visible" stroke-linecap="round" stroke-linejoin="round" style="overflow: visible;"><defs><style>@import url('https://fonts.googleapis.com/css2?family=Inter:wght@600;700&amp;display=swap');</style></defs><g style="transform-origin: 50px 50px; transform: rotate(0deg) scale(1); transition: transform 0.3s cubic-bezier(0.4, 0, 0.2, 1);"><path d="&#10;        M 35 40 &#10;        L 35 35 &#10;        A 15 15 0 0 1 50 20&#10;        A 15 15 0 0 1 65 35&#10;        L 65 48 &#10;        L 58 41 &#10;        M 65 48 &#10;        L 72 41&#10;     " stroke="#06b6d4" stroke-width="7.5" class="transition-colors duration-500"/><path d="&#10;        M 65 60&#10;        L 65 65&#10;        A 15 15 0 0 1 50 80&#10;        A 15 15 0 0 1 35 65&#10;        L 35 52&#10;        L 28 59&#10;        M 35 52&#10;        L 42 59&#10;     " stroke="#0f7aff" stroke-width="7.5" class="transition-colors duration-500"/></g><text x="110" y="52" text-anchor="start" dominant-baseline="middle" fill="#0f7aff" font-size="36" font-weight="700" style="font-family: Inter, sans-serif; pointer-events: none; transition: fill 0.3s; letter-spacing: -0.02em;">SourSync</text></svg>